<svg xmlns="http://www.w3.org/2000/svg" viewBox="1874.05 1831.44 770.27 595.75"><path fill="#d5b152" d="m2129.188 1831.5 3.06-.056c8.982.075 17.552 2.295 24.186 8.681 5.483 6.563 7.413 17.136 10.058 25.121l1.295 3.886q1.362 4.087 2.718 8.177 1.666 5.021 3.34 10.04c5.692 17.078 11.293 34.186 16.857 51.306 6.151 18.925 12.372 37.826 18.609 56.723q4.231 12.827 8.46 25.656l9.877 29.967q4.023 12.2 8.035 24.406 1.599 4.862 3.2 9.724 1.738 5.272 3.469 10.545l1 3.024c2.089 6.383 3.94 12.805 5.648 19.3l3.446-.029c14.344-.08 28.657.324 42.992.841l3.742.134c93.17 3.373 186.236 11.535 302.47 29.037q3.12.489 6.24.974c3.867.604 7.73 1.222 11.594 1.844l3.448.539c15.686 2.566 15.686 2.566 20.13 6.472 1.336 3.117 1.533 4.814.938 8.188-6.766 11.937-22.928 17.276-35.344 21.004-19.585 5.119-38.14 2.831-57.822-.45-5.785-.962-11.577-1.88-17.369-2.798l-5.95-.948c-76.669-12.176-154.169-19.17-231.64-23.553l-2.097-.119q-4.854-.275-9.71-.54c-7.368-.41-14.717-.941-22.068-1.596l.88 2.53c5.882 16.961 11.653 33.953 17.182 51.032 6.64 20.506 13.373 40.98 20.119 61.45l7.038 21.364 1.757 5.334a59633 59633 0 0 1 19.366 58.87q1.862 5.662 3.72 11.326l1.086 3.297q1.44 4.395 2.852 8.797l.91 2.827.836 2.675.736 2.339c1.529 6.373-.688 11.582-4.002 17.003-7.595 11.063-21.546 17.433-34.48 20.156-2.747.48-5.243.832-8 1l-2.52.16c-10.074.332-20.62-1.407-28.48-8.16-3.006-3.41-4.742-6.359-6.16-10.668-.375-1.124-.75-2.248-1.138-3.406l-1.194-3.684q-.638-1.93-1.279-3.857c-1.142-3.448-2.272-6.9-3.399-10.353-1.189-3.636-2.39-7.268-3.59-10.9A8787 8787 0 0 1 2236 2351l-1.916-5.86q-3.155-9.66-6.288-19.325c-6.221-19.19-12.545-38.344-18.858-57.503l-7.032-21.34-.878-2.665a45450 45450 0 0 1-21.39-65.12l-2.899-8.843A2332 2332 0 0 0 2172 2156c-85.626-.576-171.204 3.05-256.402 11.858-7.451.77-14.849 1.504-22.348 1.517l-2.414.074c-5.656.028-10.177-1.128-14.836-4.449-2-3-2-3-1.937-6.312 1.922-7.564 6.936-10.8 13.378-14.716 4.461-2.553 9.042-4.537 13.871-6.285l1.896-.697c14.301-4.84 29.738-5.922 44.667-7.365l3.204-.315c50.211-4.908 100.52-8.187 150.921-10.31l2.683-.114c18.441-.777 36.86-1.033 55.317-.886l-1.063-3.081a8515 8515 0 0 1-4.15-12.074q-.873-2.543-1.75-5.084c-5.339-15.476-10.402-31.04-15.458-46.61a8913 8913 0 0 0-12.657-38.667l-.884-2.68-4.462-13.522q-4.724-14.313-9.443-28.63l-.939-2.846a20031 20031 0 0 1-18.652-56.875l-.988-3.023q-.935-2.865-1.863-5.73a562 562 0 0 0-4.715-13.927l-.993-2.843a360 360 0 0 0-1.883-5.25c-2.212-6.36-3.604-13.092-1.2-19.594 5.24-10.748 14.318-17.13 25.1-21.564l2.813-1.254c7.406-2.827 14.506-3.156 22.374-3.246"/></svg>