<svg xmlns="http://www.w3.org/2000/svg" xmlns:xlink="http://www.w3.org/1999/xlink" version="1.1" id="Layer_1" x="0px" y="0px" style="enable-background:new 0 0 1080 1080;" xml:space="preserve" viewBox="362.34 378.53 328.99 316.48">
<style type="text/css">
	.st0{fill:#F2E4AA;}
	.st1{fill:#D4B052;}
	.st2{fill:#334360;}
	.st3{fill:#AEBCA4;}
	.st4{fill:#6B3D74;}
	.st5{fill:#AAAFC8;}
	.st6{fill:#93B1B8;}
	.st7{fill:#89A3A7;}
	.st8{fill:#F9F7F4;}
	.st9{fill:#E9D99A;}
	.st10{fill:#5C768C;}
	.st11{fill:#566B7C;}
	.st12{fill:none;stroke:#B4302C;stroke-width:12;stroke-miterlimit:10;}
	.st13{fill:none;stroke:#414042;stroke-width:12;stroke-linecap:round;stroke-linejoin:round;stroke-miterlimit:10;}
	.st14{fill:none;stroke:#AAAFC8;stroke-width:12;stroke-miterlimit:10;}
	.st15{fill:none;stroke:#2D2640;stroke-width:12;stroke-miterlimit:10;}
	.st16{fill:#B4302C;}
	.st17{fill:none;stroke:#D6DE23;stroke-width:12;stroke-miterlimit:10;}
	.st18{fill:none;stroke:#F2E4AA;stroke-width:12;stroke-miterlimit:10;}
	.st19{fill:#A16800;}
	.st20{fill:#D6DE23;}
	.st21{fill:none;stroke:#D6DE23;stroke-width:3;stroke-miterlimit:10;}
	.st22{fill:none;stroke:#93B1B8;stroke-width:12;stroke-miterlimit:10;}
	.st23{fill:none;stroke:#D4B052;stroke-width:12;stroke-miterlimit:10;}
	.st24{fill:#FFFFFF;}
	.st25{fill:none;stroke:#FFFFFF;stroke-width:12;stroke-linecap:round;stroke-linejoin:round;stroke-miterlimit:10;}
	.st26{fill:#FFDCDC;stroke:#FFDCDC;stroke-miterlimit:10;}
	.st27{fill:#FFDCDC;stroke:#FFDCDC;stroke-width:12;stroke-linecap:round;stroke-linejoin:round;stroke-miterlimit:10;}
	.st28{fill:none;stroke:#FFDCDC;stroke-width:12;stroke-linecap:round;stroke-linejoin:round;stroke-miterlimit:10;}
	.st29{fill:#FFDCDC;}
	.st30{fill:#231F20;}
	.st31{fill:#FFDCDC;stroke:#231F20;stroke-width:12;stroke-linecap:round;stroke-linejoin:round;stroke-miterlimit:10;}
	.st32{fill:none;stroke:#231F20;stroke-width:12;stroke-linecap:round;stroke-linejoin:round;stroke-miterlimit:10;}
	.st33{fill:#FFDCDC;stroke:#FFFFFF;stroke-width:12;stroke-linecap:round;stroke-linejoin:round;stroke-miterlimit:10;}
	.st34{fill:none;stroke:#000000;stroke-width:2;stroke-linecap:round;stroke-linejoin:round;stroke-miterlimit:10;}
	.st35{fill:#414042;}
	.st36{fill:none;stroke:#F2E4AA;stroke-width:15;stroke-miterlimit:10;}
	.st37{fill:none;stroke:#414042;stroke-width:15;stroke-miterlimit:10;}
	.st38{fill:none;stroke:#D6DE23;stroke-width:15;stroke-miterlimit:10;}
	.st39{fill:none;stroke:#F2E4AA;stroke-miterlimit:10;}
	.st40{fill:none;stroke:#000000;stroke-width:15;stroke-linecap:round;stroke-linejoin:round;stroke-miterlimit:10;}
	.st41{fill:none;stroke:#A16800;stroke-width:12;stroke-miterlimit:10;}
	.st42{fill:none;stroke:#362149;stroke-width:15;stroke-linecap:round;stroke-linejoin:round;stroke-miterlimit:10;}
	.st43{fill:none;stroke:#D83998;stroke-width:15;stroke-linecap:round;stroke-linejoin:round;stroke-miterlimit:10;}
	.st44{fill:none;stroke:#8CC53F;stroke-width:15;stroke-linecap:round;stroke-linejoin:round;stroke-miterlimit:10;}
	.st45{fill:none;stroke:#F2E4AA;stroke-width:17;stroke-miterlimit:10;}
	.st46{fill:none;stroke:#F05A29;stroke-width:12;stroke-miterlimit:10;}
	.st47{fill:#F05A29;}
</style>
<g>
	<g>
		<path class="st41" d="M458.69,509.95c-2.14,2.49-1.89,5.49-1.89,8.47c0.01,27.61,0.17,55.22-0.11,82.82    c-0.07,6.54,2.05,8.63,8.59,8.59c41.72-0.23,83.45-0.11,125.17-0.15c2.2,0,4.41-0.43,6.38-0.63c1.62-3.63,1.13-7.16,1.14-10.63    c0.02-25.72-0.38-51.46,0.16-77.17c0.33-15.54-7.3-27.48-15.26-39.5c-2.17-3.28-5.01-3.56-9.39-3.21    c-12.78,1.01-25.7,0.46-38.56,0.33c-17.57-0.17-35.16,1.19-52.72-0.79c-2.72-0.31-6.9,0.16-8.24,1.92    c-6.67,8.76-14.18,17.26-15.27,29.01"/>
		<path class="st41" d="M459.63,509.01c1.88,0.31,3.76,0.9,5.65,0.9c41.41,0.05,82.82,0.05,124.23,0c1.88,0,3.76-0.59,5.65-0.9"/>
		<path class="st41" d="M509.52,481.72c0,16,0.05,32-0.04,48c-0.02,3.92,0.04,7.74,1.92,11.29"/>
		<path class="st41" d="M545.28,510.89c-0.82,10.03,1.91,20.28-1.88,30.12"/>
		<path class="st41" d="M545.28,545.72c-3.54-8.6-12.86-8.64-18.81-8.53c-5.04,0.09-14.44-0.24-16.96,8.53"/>
		<path class="st41" d="M544.34,480.78c0.31,9.41,0.63,18.82,0.94,28.23"/>
	</g>
	<g>
		<path class="st15" d="M673.28,570.19c-1.84,17.34-8.06,33.48-17.18,47.85c-21.7,34.21-50.94,58.34-91.94,67.22    c-37.92,8.22-72.89,2.96-106.46-16.15c-33.5-19.06-55.35-47.42-68.42-83.01c-1.44-3.92-6.46-6.93-3.75-12.66    c11.69-2.92,18.56,7.47,28,10.86"/>
		<path class="st15" d="M383.4,575.83c-8.63,5.13-9.52,15.4-15.06,22.59"/>
	</g>
	<g>
		<path class="st15" d="M380.4,503.35c1.84-17.34,8.06-33.48,17.18-47.85c21.7-34.21,50.94-58.34,91.94-67.22    c37.92-8.22,72.89-2.96,106.46,16.15c33.5,19.06,55.35,47.42,68.42,83.01c1.44,3.92,6.46,6.93,3.75,12.66    c-11.69,2.92-18.56-7.47-28-10.86"/>
		<path class="st15" d="M670.27,497.7c8.63-5.13,9.52-15.4,15.06-22.59"/>
	</g>
</g>
</svg>