<svg xmlns="http://www.w3.org/2000/svg" xmlns:xlink="http://www.w3.org/1999/xlink" version="1.1" id="Layer_1" x="0px" y="0px" style="enable-background:new 0 0 1080 1080;" xml:space="preserve" viewBox="418.88 362.52 236.41 360.16">
<style type="text/css">
	.st0{fill:#F2E4AA;}
	.st1{fill:#D4B052;}
	.st2{fill:#334360;}
	.st3{fill:#AEBCA4;}
	.st4{fill:#6B3D74;}
	.st5{fill:#AAAFC8;}
	.st6{fill:#93B1B8;}
	.st7{fill:#89A3A7;}
	.st8{fill:#F9F7F4;}
	.st9{fill:#E9D99A;}
	.st10{fill:#5C768C;}
	.st11{fill:#566B7C;}
	.st12{fill:none;stroke:#B4302C;stroke-width:12;stroke-miterlimit:10;}
	.st13{fill:none;stroke:#414042;stroke-width:12;stroke-linecap:round;stroke-linejoin:round;stroke-miterlimit:10;}
	.st14{fill:none;stroke:#AAAFC8;stroke-width:12;stroke-miterlimit:10;}
	.st15{fill:none;stroke:#2D2640;stroke-width:12;stroke-miterlimit:10;}
	.st16{fill:#B4302C;}
	.st17{fill:none;stroke:#D6DE23;stroke-width:12;stroke-miterlimit:10;}
	.st18{fill:none;stroke:#F2E4AA;stroke-width:12;stroke-miterlimit:10;}
	.st19{fill:#A16800;}
	.st20{fill:#D6DE23;}
	.st21{fill:none;stroke:#D6DE23;stroke-width:3;stroke-miterlimit:10;}
	.st22{fill:none;stroke:#93B1B8;stroke-width:12;stroke-miterlimit:10;}
	.st23{fill:none;stroke:#D4B052;stroke-width:12;stroke-miterlimit:10;}
	.st24{fill:#FFFFFF;}
	.st25{fill:none;stroke:#FFFFFF;stroke-width:12;stroke-linecap:round;stroke-linejoin:round;stroke-miterlimit:10;}
	.st26{fill:#FFDCDC;stroke:#FFDCDC;stroke-miterlimit:10;}
	.st27{fill:#FFDCDC;stroke:#FFDCDC;stroke-width:12;stroke-linecap:round;stroke-linejoin:round;stroke-miterlimit:10;}
	.st28{fill:none;stroke:#FFDCDC;stroke-width:12;stroke-linecap:round;stroke-linejoin:round;stroke-miterlimit:10;}
	.st29{fill:#FFDCDC;}
	.st30{fill:#231F20;}
	.st31{fill:#FFDCDC;stroke:#231F20;stroke-width:12;stroke-linecap:round;stroke-linejoin:round;stroke-miterlimit:10;}
	.st32{fill:none;stroke:#231F20;stroke-width:12;stroke-linecap:round;stroke-linejoin:round;stroke-miterlimit:10;}
	.st33{fill:#FFDCDC;stroke:#FFFFFF;stroke-width:12;stroke-linecap:round;stroke-linejoin:round;stroke-miterlimit:10;}
	.st34{fill:none;stroke:#000000;stroke-width:2;stroke-linecap:round;stroke-linejoin:round;stroke-miterlimit:10;}
	.st35{fill:#414042;}
	.st36{fill:none;stroke:#F2E4AA;stroke-width:15;stroke-miterlimit:10;}
	.st37{fill:none;stroke:#414042;stroke-width:15;stroke-miterlimit:10;}
	.st38{fill:none;stroke:#D6DE23;stroke-width:15;stroke-miterlimit:10;}
	.st39{fill:none;stroke:#F2E4AA;stroke-miterlimit:10;}
	.st40{fill:none;stroke:#000000;stroke-width:15;stroke-linecap:round;stroke-linejoin:round;stroke-miterlimit:10;}
	.st41{fill:none;stroke:#A16800;stroke-width:12;stroke-miterlimit:10;}
	.st42{fill:none;stroke:#362149;stroke-width:15;stroke-linecap:round;stroke-linejoin:round;stroke-miterlimit:10;}
	.st43{fill:none;stroke:#D83998;stroke-width:15;stroke-linecap:round;stroke-linejoin:round;stroke-miterlimit:10;}
	.st44{fill:none;stroke:#8CC53F;stroke-width:15;stroke-linecap:round;stroke-linejoin:round;stroke-miterlimit:10;}
	.st45{fill:none;stroke:#F2E4AA;stroke-width:17;stroke-miterlimit:10;}
	.st46{fill:none;stroke:#F05A29;stroke-width:12;stroke-miterlimit:10;}
	.st47{fill:#F05A29;}
</style>
<g>
	<path class="st46" d="M481.89,466.04c-1.67,2.26-0.88,4.86-0.94,7.31c-0.12,4.71-0.23,9.44,0.01,14.14   c0.36,6.97,3.83,11,9.22,11.22c6.56,0.27,12.11-3.84,13.11-10.25c1.15-7.37-2.25-12.91-7.72-17.58   c-5.81-4.95-13.16-5.73-20.04-7.68c-3.59-1.01-7.51-0.79-11.18-1.61c-12.83-2.86-22.66,6.19-24.28,18.11   c-1.49,10.98-1.96,22.1-3.06,33.14c-1,10.09-2.29,20.15-3.38,30.24c-2.15,19.99-4.23,39.98-6.35,59.97   c-1.6,15.07-2.62,30.19-2.36,45.35c0.16,9.5,0.59,19.02,3.23,28.31c1.04,3.67,2.55,5.74,6.41,6.9   c18.99,5.67,38.2,10.41,57.58,14.48c20.27,4.26,40.61,8.22,60.94,12.21c11.35,2.23,22.73,4.36,34.14,6.28   c2.81,0.47,5.52-0.8,8.35-1.63c18.58-5.51,31.23-19.72,46.34-30.34c8.35-5.87,7.55-13.93,7.16-22.06   c-0.56-11.88-1.49-23.74-2.4-35.6c-0.79-10.25-1.66-20.49-2.69-30.72c-1.27-12.69-2.38-25.41-4.22-38.02   c-1.65-11.25-3.09-22.54-5.55-33.7c-1.99-9.04-3.23-18.2-6.97-26.8c-1.75-4.03-4.33-6.39-8.83-6.31c-4.24,0.08-6,3.34-7.77,6.35   c-3.81,6.47-5.48,13.69-6.83,20.95c-3.1,16.76-4.1,33.67-4,50.71c0.12,20.64-0.13,41.29-0.46,61.92c-0.31,19.67-0.81,39.34-1.49,59   c-0.27,7.98-1.24,15.93-1.89,23.89"/>
	<path class="st46" d="M534.06,370.23c4.73,0.4,9.47,0.4,14.16,1.64c13.19,3.49,18.45,13.58,21.38,25.43   c3.53,14.31,2.81,28.86,1.5,43.38c-0.87,9.6-1.93,19.18-2.9,28.77"/>
	<path class="st46" d="M533.57,368.52c0.23,1.53-0.47,1.89-1.95,1.99c-22.07,1.56-35.32,14.87-42.69,34.18   c-5.37,14.06-6.82,29.19-7.67,44.28c-0.27,4.86,0.59,9.9-1.33,14.64"/>
	<path class="st46" d="M569.17,471.41c-1.91,7.09-0.89,14.3-0.69,21.45c0.12,4.1,0.84,8.15,3.13,11.7c2.65,4.11,7.1,4.74,10.71,1.46   c5.5-5,8.89-16.09,2.48-24.88c-4.7-6.45-11.52-9.61-18.62-11.99c-3.21-1.08-6.95,0.56-9.63,2.82c-3.16,2.66-6.2,5.58-8.32,9.21   c-1.03,1.76-2.03,3.44-3.93,4.37"/>
</g>
<g>
	<path class="st47" d="M500.13,613.27c-3.2-1.6-6.4-3.6-8.8-6.4c-2.8-2.8-4.4-6.4-4.4-9.6c0-3.2,1.2-6,2.8-8.8   c1.2-2.4,3.2-4.4,5.6-6c8.4-6.8,18-11.2,28.4-13.6c2.4-0.4,4.8-0.8,7.6-0.8c2,0,4,0.4,6,0.8c4.4,0.8,7.6,3.6,9.2,8   c0,0.4,0.4,0.8,0.4,1.2s-0.4,1.2-1.2,1.6c-2.4,2-5.6,3.2-8,5.2c-0.4,0.4-1.2,0.8-2,0.8c-0.4,0-1.2-0.4-2-1.2   c-0.8-0.8-2-1.2-3.2-1.2c-2,0-4.4,0-6.4,0.8c-6.4,1.6-12,4-17.6,7.6l-3.6,3.6c-0.4,0.4-0.4,0.8-0.4,1.2s0,0.8,0.4,1.2   c1.2,0.8,2,1.2,2.8,2c3.2,1.6,6.4,2.8,9.6,4c3.6,1.2,6.8,2.4,10,4.4c4,2.4,6,6,6,10.4c0,2.8-1.2,4.8-3.2,6.8   c-1.6,2-3.6,3.6-5.6,4.4c-9.2,4.8-19.2,8.4-28.8,11.2c-1.2,0.4-2,0.4-2.8,0.4c-1.2,0-2.4,0-3.6-0.4c-1.2-0.4-1.6-1.2-2-2.8   c0-3.2,0.4-6.4,0.4-10c0-1.2,0.8-1.6,2.4-2c8-0.8,15.2-4.4,22.8-7.2c0,0,0-0.4,0.4-0.8C507.33,616.47,503.73,615.27,500.13,613.27z   "/>
</g>
</svg>