<?xml version="1.0" encoding="UTF-8"?>
<svg version="1.1" xmlns="http://www.w3.org/2000/svg" width="4501" height="4501">
<path d="M0 0 C1.0096582 -0.01853027 2.01931641 -0.03706055 3.05957031 -0.05615234 C12.04242441 0.01882729 20.61237426 2.23908406 27.24604797 8.6254425 C32.7299423 15.18796408 34.65914189 25.76130516 37.3046875 33.74609375 C37.73603559 35.04133858 38.1676111 36.33650769 38.59939575 37.63160706 C39.50725238 40.35673588 40.41310947 43.08251798 41.31738281 45.80883789 C42.42783757 49.15664096 43.54192959 52.50321657 44.65748405 55.84932327 C50.34996829 72.92748874 55.9505426 90.0347785 61.51457977 107.15518379 C67.66559109 126.07993001 73.8861364 144.98135501 80.12335205 163.87783813 C82.94570363 172.42896753 85.76418958 180.98137158 88.58311081 189.53363228 C89.52547229 192.39262748 90.46788394 195.25160615 91.41030884 198.11058044 C92.92344049 202.70090381 94.43647634 207.29125875 95.94946289 211.88162994 C96.78656891 214.42132763 97.62375013 216.96100052 98.4609375 219.50067139 C101.14218209 227.63501276 103.82169584 235.7699173 106.49580193 243.90660858 C107.56122732 247.14839505 108.62752212 250.3898878 109.6963501 253.6305542 C110.8548689 257.14477644 112.0099171 260.66012069 113.1640625 264.17578125 C113.65888123 265.67279823 113.65888123 265.67279823 114.16369629 267.20005798 C116.25347623 273.58268884 118.10477073 280.00483469 119.8125 286.5 C120.94953369 286.49057373 122.08656738 286.48114746 123.25805664 286.47143555 C137.60285355 286.39110189 151.91564729 286.79474319 166.25 287.3125 C167.48514343 287.3566806 168.72028687 287.40086121 169.99285889 287.44638062 C263.16344349 290.81945194 356.22887009 298.98075732 472.46170425 316.48284531 C474.5418071 316.80925289 476.62224015 317.13348623 478.70272827 317.45742798 C482.56923104 318.06083736 486.43320696 318.67946544 490.296875 319.30078125 C491.43463882 319.47863159 492.57240265 319.65648193 493.74464417 319.83972168 C509.43009101 322.40636786 509.43009101 322.40636786 513.875 326.3125 C515.21043425 329.42851326 515.40794488 331.12581236 514.8125 334.5 C508.04611425 346.43744478 491.88413752 351.7763892 479.46875 355.50390625 C459.88390082 360.62267365 441.32902102 358.33547364 421.64666748 355.05413818 C415.86172509 354.09240853 410.06984862 353.17473637 404.27795792 352.25592041 C402.29419742 351.94098116 400.31065455 351.62469537 398.32711792 351.30834961 C321.65870203 339.13178678 244.15898821 332.13882829 166.68823242 327.75512695 C165.64995111 327.69626517 165.64995111 327.69626517 164.59069443 327.63621426 C161.3543052 327.45310146 158.11781356 327.27237088 154.881073 327.0955658 C147.51239527 326.68579414 140.16351963 326.15473693 132.8125 325.5 C133.1027002 326.3350708 133.39290039 327.1701416 133.69189453 328.03051758 C139.57429153 344.99139072 145.34548333 361.98311473 150.875 379.0625 C157.51452279 399.56796989 164.24701574 420.04221499 170.9935112 440.51267624 C173.34025475 447.63372577 175.68593379 454.7551261 178.03178215 461.87647057 C178.61744136 463.65436819 179.20311057 465.43226253 179.78878975 467.21015358 C185.34768821 484.08498753 190.90244494 500.96117658 196.44625854 517.8409729 C197.34841792 520.58773606 198.25120242 523.33429243 199.15457153 526.08065796 C200.3961727 529.85537689 201.63570406 533.63077356 202.875 537.40625 C203.41216896 539.03805962 203.41216896 539.03805962 203.96018982 540.70283508 C204.92059817 543.63223036 205.87087235 546.56451804 206.8125 549.5 C207.11269043 550.43279785 207.41288086 551.3655957 207.72216797 552.32666016 C207.99818848 553.20950684 208.27420898 554.09235352 208.55859375 555.00195312 C208.92295532 556.15975281 208.92295532 556.15975281 209.29467773 557.34094238 C210.82323646 563.71426113 208.60662638 568.92308878 205.29296875 574.34375 C197.69703201 585.4069613 183.74637401 591.77707916 170.8125 594.5 C168.06594022 594.97955806 165.56927695 595.3318417 162.8125 595.5 C161.98105469 595.55285156 161.14960938 595.60570313 160.29296875 595.66015625 C150.21884333 595.99163677 139.67331574 594.25315534 131.8125 587.5 C128.80656518 584.08935481 127.07094564 581.14106643 125.65283203 576.83154297 C125.27729187 575.70757614 124.90175171 574.58360931 124.51483154 573.42558289 C124.12064026 572.21006241 123.72644897 570.99454193 123.3203125 569.7421875 C122.89504215 568.45618989 122.46885376 567.17049555 122.04180908 565.88508606 C120.89927635 562.43717876 119.76985153 558.98510841 118.64293671 555.53207016 C117.45389931 551.89625554 116.25278772 548.26443177 115.05322266 544.63208008 C112.29109343 536.25968206 109.5494155 527.88066861 106.8125 519.5 C106.17382965 517.54638622 105.53515797 515.59277288 104.89648438 513.63916016 C102.79308346 507.20003471 100.69617132 500.75882797 98.6081543 494.31469727 C92.38748355 475.12583521 86.06342032 455.97099135 79.75 436.8125 C77.40607457 429.69927655 75.0623022 422.58600268 72.71875 415.47265625 C72.42897341 414.59312979 72.13919682 413.71360332 71.84063911 412.80742455 C65.12069894 392.40997594 58.42383491 372.00497464 51.7328167 351.59802341 C51.3053867 350.2944067 50.87794384 348.9907942 50.45048714 347.68718624 C49.48394073 344.73952312 48.51755084 341.79180895 47.55151367 338.84397888 C45.98283585 334.05893008 44.41215408 329.27481071 42.8125 324.5 C-42.81393544 323.92422186 -128.39157186 327.55011435 -213.5894165 336.35809326 C-221.0405121 337.12819184 -228.43814139 337.8621145 -235.9375 337.875 C-236.73414063 337.89949219 -237.53078125 337.92398438 -238.3515625 337.94921875 C-244.00709042 337.97703282 -248.52876749 336.82064568 -253.1875 333.5 C-255.1875 330.5 -255.1875 330.5 -255.125 327.1875 C-253.20202629 319.6238034 -248.18860217 316.38756173 -241.74633789 312.47216797 C-237.28501519 309.9188053 -232.70496472 307.93531694 -227.875 306.1875 C-226.93672363 305.84235352 -226.93672363 305.84235352 -225.97949219 305.49023438 C-211.67844255 300.64987911 -196.24173429 299.56775978 -181.3125 298.125 C-180.25504578 298.02117004 -179.19759155 297.91734009 -178.10809326 297.81036377 C-127.89736219 292.90197707 -77.58896198 289.62282883 -27.1875 287.5 C-26.30211548 287.46239563 -25.41673096 287.42479126 -24.5045166 287.38604736 C-6.06352721 286.6092258 12.35520592 286.35255941 30.8125 286.5 C30.46171387 285.48317139 30.11092773 284.46634277 29.74951172 283.41870117 C28.36269395 279.3953851 26.98088105 275.37036127 25.60009766 271.3449707 C25.01799182 269.64988722 24.43477426 267.95518481 23.85009766 266.26098633 C18.5108251 250.78462927 13.44779821 235.22140993 8.39138794 219.65098572 C4.20186552 206.75231558 -0.01727033 193.86378662 -4.265625 180.984375 C-4.55730309 180.09997868 -4.84898117 179.21558235 -5.14949799 178.30438614 C-6.63627557 173.79678413 -8.12367642 169.28938816 -9.61151123 164.78213501 C-12.76144781 155.23960058 -15.90829848 145.69604838 -19.0546875 136.15234375 C-19.36440617 135.21295141 -19.67412483 134.27355907 -19.99322891 133.3057003 C-26.24007563 114.35695243 -32.45531115 95.3979951 -38.64550781 76.43066406 C-38.97143921 75.43314117 -39.29737061 74.43561829 -39.63317871 73.40786743 C-40.25622786 71.4986269 -40.877478 69.5887981 -41.4967041 67.67831421 C-43.01304782 63.01490947 -44.57402124 58.37370367 -46.21191406 53.75146484 C-46.53946686 52.81304245 -46.86701965 51.87462006 -47.20449829 50.90776062 C-47.81907334 49.15299766 -48.44558775 47.40234309 -49.08724976 45.65730286 C-51.29931773 39.29759735 -52.69132108 32.56643103 -50.28677368 26.06437683 C-45.0473378 15.31599946 -35.9698814 8.93425435 -25.1875 4.5 C-24.259375 4.08621094 -23.33125 3.67242188 -22.375 3.24609375 C-14.96846796 0.41939868 -7.8688451 0.08993651 0 0 Z " fill="#D5B152" transform="translate(2129.1875,1831.5)"/>
</svg>
