<svg xmlns="http://www.w3.org/2000/svg" xmlns:xlink="http://www.w3.org/1999/xlink" version="1.1" id="Layer_1" x="0px" y="0px" style="enable-background:new 0 0 1080 1080;" xml:space="preserve" viewBox="376.33 417.97 307.52 229.05">
<style type="text/css">
	.st0{fill:#F2E4AA;}
	.st1{fill:#D4B052;}
	.st2{fill:#334360;}
	.st3{fill:#AEBCA4;}
	.st4{fill:#6B3D74;}
	.st5{fill:#AAAFC8;}
	.st6{fill:#93B1B8;}
	.st7{fill:#89A3A7;}
	.st8{fill:#F9F7F4;}
	.st9{fill:#E9D99A;}
	.st10{fill:#5C768C;}
	.st11{fill:#566B7C;}
	.st12{fill:none;stroke:#B4302C;stroke-width:12;stroke-miterlimit:10;}
	.st13{fill:none;stroke:#414042;stroke-width:12;stroke-linecap:round;stroke-linejoin:round;stroke-miterlimit:10;}
	.st14{fill:none;stroke:#AAAFC8;stroke-width:12;stroke-miterlimit:10;}
	.st15{fill:none;stroke:#2D2640;stroke-width:12;stroke-miterlimit:10;}
	.st16{fill:#B4302C;}
	.st17{fill:none;stroke:#D6DE23;stroke-width:12;stroke-miterlimit:10;}
	.st18{fill:none;stroke:#F2E4AA;stroke-width:12;stroke-miterlimit:10;}
	.st19{fill:#A16800;}
	.st20{fill:#D6DE23;}
	.st21{fill:none;stroke:#D6DE23;stroke-width:3;stroke-miterlimit:10;}
	.st22{fill:none;stroke:#93B1B8;stroke-width:12;stroke-miterlimit:10;}
	.st23{fill:none;stroke:#D4B052;stroke-width:12;stroke-miterlimit:10;}
	.st24{fill:#FFFFFF;}
	.st25{fill:none;stroke:#FFFFFF;stroke-width:12;stroke-linecap:round;stroke-linejoin:round;stroke-miterlimit:10;}
	.st26{fill:#FFDCDC;stroke:#FFDCDC;stroke-miterlimit:10;}
	.st27{fill:#FFDCDC;stroke:#FFDCDC;stroke-width:12;stroke-linecap:round;stroke-linejoin:round;stroke-miterlimit:10;}
	.st28{fill:none;stroke:#FFDCDC;stroke-width:12;stroke-linecap:round;stroke-linejoin:round;stroke-miterlimit:10;}
	.st29{fill:#FFDCDC;}
	.st30{fill:#231F20;}
	.st31{fill:#FFDCDC;stroke:#231F20;stroke-width:12;stroke-linecap:round;stroke-linejoin:round;stroke-miterlimit:10;}
	.st32{fill:none;stroke:#231F20;stroke-width:12;stroke-linecap:round;stroke-linejoin:round;stroke-miterlimit:10;}
	.st33{fill:#FFDCDC;stroke:#FFFFFF;stroke-width:12;stroke-linecap:round;stroke-linejoin:round;stroke-miterlimit:10;}
	.st34{fill:none;stroke:#000000;stroke-width:2;stroke-linecap:round;stroke-linejoin:round;stroke-miterlimit:10;}
	.st35{fill:#414042;}
	.st36{fill:none;stroke:#D6DE23;stroke-width:15;stroke-miterlimit:10;}
	.st37{fill:none;stroke:#F2E4AA;stroke-width:15;stroke-miterlimit:10;}
	.st38{fill:none;stroke:#F2E4AA;stroke-miterlimit:10;}
	.st39{fill:none;stroke:#000000;stroke-width:15;stroke-linecap:round;stroke-linejoin:round;stroke-miterlimit:10;}
	.st40{fill:none;stroke:#414042;stroke-width:15;stroke-miterlimit:10;}
	.st41{fill:none;stroke:#A16800;stroke-width:12;stroke-miterlimit:10;}
	.st42{fill:none;stroke:#362149;stroke-width:15;stroke-linecap:round;stroke-linejoin:round;stroke-miterlimit:10;}
	.st43{fill:none;stroke:#D83998;stroke-width:15;stroke-linecap:round;stroke-linejoin:round;stroke-miterlimit:10;}
	.st44{fill:none;stroke:#8CC53F;stroke-width:15;stroke-linecap:round;stroke-linejoin:round;stroke-miterlimit:10;}
	.st45{fill:none;stroke:#F2E4AA;stroke-width:17;stroke-miterlimit:10;}
</style>
<path class="st0" d="M604.41,470.32c-23.11,0-46.22,0.03-69.33-0.05c-2.05-0.01-2.95,0.47-3.58,2.58  c-5.31,17.81-21.98,30.19-40.49,30.24c-18.63,0.06-35.37-12.25-40.82-30.17c-0.62-2.03-1.4-2.68-3.54-2.67  c-19.88,0.09-39.77,0.07-59.65,0.05c-5.53-0.01-9.27-2.82-10.36-7.69c-1.3-5.81,2.82-11.44,8.76-11.78c3.04-0.17,6.1-0.08,9.15-0.08  c17.53,0,35.06-0.02,52.59,0.03c1.64,0.01,2.4-0.4,2.9-2.09c5.42-18.27,21.86-30.65,40.64-30.72c18.65-0.07,35.25,12.13,40.79,30.18  c0.63,2.06,1.45,2.65,3.55,2.64c45.35-0.06,90.7-0.05,136.05-0.03c1.82,0,3.71-0.08,5.46,0.34c4.56,1.09,7.75,5.71,7.27,10.18  c-0.55,5.13-4.42,8.93-9.55,8.95c-19.54,0.08-39.07,0.05-58.61,0.06C611.91,470.33,608.16,470.32,604.41,470.32z M490.66,483.39  c12.78,0.05,22.97-10.02,23.02-22.74c0.05-12.75-10.03-22.9-22.79-22.95c-12.48-0.05-22.9,10.11-22.91,22.34  C467.96,473.13,477.88,483.35,490.66,483.39z"/>
<path class="st6" d="M468.85,594.7c27.47,0,54.94-0.02,82.42,0.05c2.07,0.01,2.95-0.5,3.59-2.6c5.4-17.93,22.14-30.27,40.76-30.23  c18.76,0.04,35.29,12.45,40.67,30.68c0.49,1.66,1.19,2.14,2.86,2.13c11.69-0.06,23.37-0.06,35.06,0.02  c4.47,0.03,8.13,2.97,9.24,7.11c1.67,6.24-2.66,12.23-9.17,12.31c-11.42,0.14-22.85,0.13-34.27,0.02c-2.28-0.02-3.24,0.56-3.95,2.85  c-5.63,18.06-22.2,30.12-40.91,29.98c-18.61-0.14-35.08-12.57-40.39-30.69c-0.63-2.14-1.79-2.1-3.43-2.1  c-53.72,0.02-107.45,0.02-161.17,0.01c-1.57,0-3.14,0.04-4.71-0.06c-5.1-0.32-9.12-4.62-9.12-9.69c0-5.09,4-9.41,9.06-9.75  c1.04-0.07,2.09-0.05,3.14-0.05C415.3,594.7,442.07,594.7,468.85,594.7z M595.68,581.63c-12.36-0.11-22.9,9.92-23.03,21.95  c-0.15,13.27,9.68,23.62,22.55,23.74c12.55,0.12,23.02-9.87,23.16-22.09C618.51,592.01,608.65,581.75,595.68,581.63z"/>
</svg>