<svg xmlns="http://www.w3.org/2000/svg" xmlns:xlink="http://www.w3.org/1999/xlink" version="1.1" id="Layer_1" x="0px" y="0px" style="enable-background:new 0 0 1080 1080;" xml:space="preserve" viewBox="460.91 359.43 221.33 265.36">
<style type="text/css">
	.st0{fill:#93B1B8;}
	.st1{fill:#F2E4AA;}
	.st2{fill:#334360;}
	.st3{fill:#AEBCA4;}
	.st4{fill:#6B3D74;}
	.st5{fill:#D4B052;}
	.st6{fill:#AAAFC8;}
	.st7{fill:#FFF5C6;}
	.st8{fill:#89A3A7;}
	.st9{fill:#F9F7F4;}
	.st10{fill:#E9D99A;}
	.st11{fill:#5C768C;}
	.st12{fill:#566B7C;}
	.st13{fill:none;stroke:#B4302C;stroke-width:10;stroke-miterlimit:10;}
	.st14{fill:none;stroke:#414042;stroke-width:10;stroke-linecap:round;stroke-linejoin:round;stroke-miterlimit:10;}
	.st15{fill:none;stroke:#AAAFC8;stroke-width:8;stroke-miterlimit:10;}
	.st16{fill:none;stroke:#2D2640;stroke-width:10;stroke-miterlimit:10;}
	.st17{fill:#B4302C;}
	.st18{fill:none;stroke:#D6DE23;stroke-width:17;stroke-miterlimit:10;}
	.st19{fill:none;stroke:#D6DE23;stroke-width:13;stroke-miterlimit:10;}
	.st20{fill:none;stroke:#F2E4AA;stroke-width:16;stroke-miterlimit:10;}
	.st21{fill:#A16800;}
	.st22{fill:#D6DE23;}
	.st23{fill:none;stroke:#D6DE23;stroke-width:10;stroke-miterlimit:10;}
	.st24{fill:none;stroke:#2D2640;stroke-width:16;stroke-miterlimit:10;}
	.st25{fill:none;stroke:#93B1B8;stroke-width:10;stroke-miterlimit:10;}
	.st26{fill:none;stroke:#B4302C;stroke-width:15;stroke-miterlimit:10;}
	.st27{fill:none;stroke:#D4B052;stroke-width:15;stroke-miterlimit:10;}
	.st28{fill:none;stroke:#93B1B8;stroke-width:12;stroke-miterlimit:10;}
</style>
<g>
	<g>
		<path class="st0" d="M656.66,423.41c0.5-12.07-0.82-24.4-3.83-36.09c-0.55-2.14-1.22-4.24-2.05-6.28    c-0.77-1.88-1.53-3.8-2.51-5.59c-1.04-1.88-2.37-3.56-3.72-5.23c-1.93-2.4-4.46-4.47-7.12-6.01c-2.8-1.62-6.01-2.85-9.2-3.46    c-5.94-1.13-11.85-1.11-17.87-1.12c-5.81,0-11.63-0.01-17.44-0.01c-11.63-0.01-23.26-0.02-34.89-0.03    c-11.55-0.01-23.09-0.02-34.64-0.03c-5.73,0-11.46-0.01-17.2-0.01c-5.67,0-11.41-0.28-17.07,0.03c-5.47,0.3-10.27,1.81-14.41,5.5    c-2.44,2.17-4.17,5.08-5.48,8.04c-2.46,5.56-4.5,11.19-5.75,17.14c-2.29,10.93-2.8,22.14-2.48,33.27    c0.31,10.92,1.17,21.82,1.67,32.73c0.53,11.52,0.9,23.05,1.1,34.59c0.4,23.15,0.14,46.31-0.78,69.44    c-0.23,5.8-0.51,11.61-0.82,17.41c-0.33,6.03-0.46,11.95,0.87,17.91c1.3,5.82,4.58,11.61,9,15.64c4.31,3.93,9.15,6.48,14.64,8.4    c4.77,1.67,9.81,2.34,14.8,2.93c4.65,0.55,9.34,0.7,14.02,0.9c11.52,0.51,23.04,0.86,34.57,1.08c23.13,0.43,46.28,0.27,69.41-0.47    c2.43-0.08,4.85-0.17,7.27-0.45c3.4-0.4,6.81-0.81,10.01-2.07c4.06-1.59,7.2-3.37,10.49-6.27c2.2-1.94,4.06-4.42,5.59-6.91    c1.57-2.56,2.74-5.44,3.69-8.28c0.65-1.95,1.09-3.96,1.4-5.99c0.48-3.27,0.87-6.49,0.87-9.79c0-2.73-0.18-5.46-0.36-8.18    c-0.37-5.43-0.78-10.87-0.09-16.3c0.37-2.95-1.66-6.84-3.66-8.84c-2.17-2.17-5.73-3.8-8.84-3.66c-3.23,0.14-6.59,1.21-8.84,3.66    c-0.65,0.84-1.3,1.69-1.95,2.53c-1.13,1.95-1.7,4.05-1.71,6.31c-1.28,10.19,1.41,20.41,0.08,30.58c0.15-1.11,0.3-2.22,0.45-3.32    c-0.4,2.87-1.09,5.68-2.2,8.36c0.42-1,0.84-1.99,1.26-2.99c-0.78,1.83-1.75,3.56-2.96,5.15c0.65-0.84,1.3-1.69,1.95-2.53    c-0.93,1.18-1.98,2.25-3.16,3.19c0.84-0.65,1.69-1.3,2.53-1.95c-1.23,0.94-2.55,1.7-3.98,2.31c1-0.42,1.99-0.84,2.99-1.26    c-2.08,0.84-4.25,1.33-6.46,1.64c1.11-0.15,2.22-0.3,3.32-0.45c-3.86,0.49-7.78,0.52-11.66,0.63c-4.23,0.12-8.46,0.23-12.69,0.31    c-8.62,0.17-17.25,0.26-25.87,0.27c-17.08,0.02-34.17-0.28-51.24-0.9c-8.4-0.31-16.91-0.36-25.26-1.44    c1.11,0.15,2.22,0.3,3.32,0.45c-4.2-0.57-8.37-1.46-12.31-3.07c1,0.42,1.99,0.84,2.99,1.26c-2.1-0.89-4.09-1.97-5.91-3.35    c0.84,0.65,1.69,1.3,2.53,1.95c-1.35-1.05-2.55-2.23-3.61-3.57c0.65,0.84,1.3,1.69,1.95,2.53c-0.99-1.31-1.8-2.71-2.44-4.22    c0.42,1,0.84,1.99,1.26,2.99c-0.75-1.86-1.21-3.78-1.48-5.77c0.15,1.11,0.3,2.22,0.45,3.32c-0.73-5.87-0.03-11.87,0.26-17.74    c0.31-6.3,0.58-12.6,0.8-18.9c0.44-12.77,0.67-25.55,0.7-38.33c0.06-25.45-0.72-50.9-2.21-76.31c-0.76-12.86-1.49-25.82,0.2-38.64    c-0.15,1.11-0.3,2.22-0.45,3.32c0.93-6.8,2.57-13.48,5.24-19.82c-0.42,1-0.84,1.99-1.26,2.99c0.75-1.76,1.53-3.51,2.68-5.05    c-0.65,0.84-1.3,1.69-1.95,2.53c0.41-0.51,0.85-0.97,1.35-1.4c-0.84,0.65-1.69,1.3-2.53,1.95c0.55-0.42,1.11-0.74,1.75-1.01    c-1,0.42-1.99,0.84-2.99,1.26c0.79-0.29,1.58-0.47,2.41-0.59c-1.11,0.15-2.22,0.3-3.32,0.45c4.22-0.47,8.61-0.14,12.85-0.14    c4.49,0,8.97,0.01,13.46,0.01c8.89,0.01,17.78,0.02,26.66,0.02c17.86,0.02,35.72,0.03,53.58,0.05c5.07,0,10.13,0.01,15.2,0.01    c4.48,0,9.01-0.16,13.47,0.39c-1.11-0.15-2.22-0.3-3.32-0.45c2.15,0.29,4.24,0.77,6.24,1.6c-1-0.42-1.99-0.84-2.99-1.26    c1.23,0.54,2.38,1.2,3.45,2c-0.84-0.65-1.69-1.3-2.53-1.95c1.1,0.87,2.06,1.84,2.93,2.94c-0.65-0.84-1.3-1.69-1.95-2.53    c1.24,1.63,2.21,3.42,3.02,5.3c-0.42-1-0.84-1.99-1.26-2.99c2.53,6.09,3.7,12.84,4.57,19.34c-0.15-1.11-0.3-2.22-0.45-3.32    c0.85,6.54,1.14,13.13,0.87,19.72c-0.13,3.12,1.49,6.66,3.66,8.84c2.17,2.17,5.73,3.8,8.84,3.66    C651.16,435.59,656.37,430.41,656.66,423.41L656.66,423.41z"/>
	</g>
</g>
<g>
	<g>
		<path class="st17" d="M548.91,498.51c13.39-0.02,26.77-0.03,40.16-0.03c13.29,0,26.59,0,39.88,0.01    c7.48,0.01,14.96,0.01,22.44,0.02c1.57-0.04,3.12-0.26,4.64-0.64c1.64-0.29,3.24-0.75,4.79-1.37c1.38-0.48,2.67-1.13,3.88-1.95    c1.04-0.56,1.96-1.27,2.75-2.16c0.3-0.48,0.61-0.97,0.91-1.45c0.35-0.99,0.13-1.83-0.67-2.51c-0.51-0.27-1.01-0.53-1.52-0.8    c-1.56-0.46-3.16-0.64-4.79-0.53c-13.31-0.02-26.61-0.03-39.92-0.03c-13.32,0-26.63,0-39.95,0.01    c-7.54,0.01-15.08,0.01-22.62,0.02c-1.57,0.04-3.12,0.26-4.64,0.64c-1.64,0.29-3.24,0.75-4.79,1.37    c-1.38,0.48-2.67,1.13-3.88,1.95c-1.04,0.56-1.96,1.27-2.75,2.16c-0.3,0.48-0.61,0.97-0.91,1.45c-0.35,0.99-0.13,1.83,0.67,2.51    c0.51,0.27,1.01,0.53,1.52,0.8C545.69,498.44,547.29,498.62,548.91,498.51L548.91,498.51z"/>
	</g>
</g>
<g>
	<g>
		<path class="st17" d="M636.58,474.77c3.6,3.45,7.19,6.9,10.79,10.35c1.8,1.73,3.6,3.45,5.39,5.18c0.9,0.86,1.8,1.73,2.7,2.59    c0.83,0.8,1.72,1.57,2.49,2.43c-0.22-0.25-0.44-0.5-0.66-0.75c0.65,0.79,0.91,1.67,0.73,2.67c0.07-0.33,0.13-0.66,0.2-0.98    c-0.27,1.19-0.99,2.19-1.79,3.08c0.34-0.37,0.67-0.74,1.01-1.11c-1.55,1.69-3.38,3.13-5.02,4.72c-1.97,1.91-3.84,3.91-5.68,5.94    c-3.16,3.49-6.08,7.19-8.74,11.06c-0.39,0.57-0.34,1.02,0.13,1.36c0.39,0.57,0.98,0.85,1.76,0.83c1.12,0.17,2.24,0.2,3.36,0.08    c1.43-0.04,2.86-0.21,4.26-0.52c3.13-0.63,6.32-1.46,9.22-2.82c1.8-0.85,3.86-1.75,5.03-3.44c2.71-3.94,5.68-7.69,8.89-11.23    c-0.34,0.37-0.67,0.74-1.01,1.11c2.16-2.37,4.43-4.65,6.8-6.82c2.45-2.24,5.73-4.7,5.8-8.34c0.03-1.73-1.54-2.95-2.69-4.05    c-1.26-1.21-2.52-2.42-3.78-3.62c-2.58-2.47-5.15-4.95-7.73-7.42c-2.88-2.76-5.75-5.52-8.63-8.28c-0.78-0.37-1.6-0.55-2.46-0.53    c-1.2-0.14-2.41-0.11-3.61,0.07c-3.12,0.31-6.45,1.09-9.39,2.16c-0.93,0.37-1.86,0.73-2.8,1.1c-1.44,0.6-2.78,1.38-4.02,2.33    c-0.34,0.37-0.67,0.74-1.01,1.11C635.7,473.76,635.85,474.34,636.58,474.77L636.58,474.77z"/>
	</g>
</g>
</svg>