<?xml version="1.0" encoding="UTF-8"?>
<svg version="1.1" xmlns="http://www.w3.org/2000/svg" width="4501" height="4500">
<path d="M0 0 C3.25931592 2.18353814 5.90715533 4.77286857 8.63134766 7.56787109 C9.1823967 8.1241217 9.73344574 8.68037231 10.30119324 9.253479 C12.05542544 11.02543072 13.80281669 12.80392513 15.54931641 14.58349609 C22.42685715 21.57136146 29.25014793 28.49017752 36.73681641 34.83349609 C38.51251862 36.45317426 40.28389948 38.07761327 42.04931641 39.70849609 C47.45173098 44.62921389 53.038505 49.26142163 58.73681641 53.83349609 C59.85702157 54.74574899 60.97679345 55.65853412 62.09619141 56.57177734 C87.3718528 77.11149071 114.48307465 95.62954349 142.73681641 111.83349609 C144.1316626 112.63980469 144.1316626 112.63980469 145.5546875 113.46240234 C219.2053749 155.91459571 300.25456007 183.54844424 384.54931641 194.58349609 C385.31374054 194.68481842 386.07816467 194.78614075 386.86575317 194.89053345 C411.50946344 198.11546352 436.14063287 199.21726701 460.97499084 199.15155411 C463.15011672 199.14589647 465.32523474 199.14308673 467.50036621 199.14047241 C488.97361138 199.10299547 510.28759901 198.63077751 531.62866211 196.08349609 C533.81941495 195.82370097 536.01129288 195.57578499 538.20361328 195.32958984 C616.45726127 186.44854258 692.64367317 165.71134548 768.70298195 146.01715565 C867.4675772 120.4448014 966.13768295 98.04206452 1108.23681641 85.58349609 C1109.43509064 85.50032135 1110.63336487 85.41714661 1111.86795044 85.33145142 C1136.61542844 83.63435596 1161.30448866 82.62096979 1186.11181641 82.64599609 C1187.7977742 82.64690247 1187.7977742 82.64690247 1189.51779175 82.64782715 C1235.02691211 82.71371195 1281.17732153 85.72941561 1325.34570312 97.39770508 C1326.13477051 97.60081299 1326.92383789 97.8039209 1327.73681641 98.01318359 C1328.75775391 98.28751221 1328.75775391 98.28751221 1329.79931641 98.56738281 C1332.08622487 98.88148692 1333.56539532 98.59452642 1335.73681641 97.83349609 C1337.49761209 96.48259055 1339.1983837 95.0526247 1340.86181641 93.58349609 C1361.65543227 75.75341827 1385.31337032 62.02927991 1409.73681641 49.83349609 C1410.48882324 49.45354492 1411.24083008 49.07359375 1412.015625 48.68212891 C1482.90260491 13.04980405 1568.26788528 3.30226411 1646.73681641 1.83349609 C1647.7891748 1.81158203 1648.8415332 1.78966797 1649.92578125 1.76708984 C1707.90583822 0.71497933 1765.46452059 8.30234502 1818.47753906 32.79199219 C1820.73965836 33.83480621 1823.00936122 34.85969323 1825.27978516 35.88427734 C1837.20882344 41.3339829 1848.56277287 47.65219356 1859.9140625 54.20898438 C1862.56177324 55.7327577 1865.21876841 57.23823541 1867.88134766 58.73583984 C1878.49697642 64.72005465 1888.944145 70.95700308 1899.34500122 77.30435181 C1916.50646724 87.77506719 1933.81765352 98.01205847 1951.48535156 107.609375 C1953.02385108 108.44585695 1954.55988255 109.2868901 1956.09375 110.13183594 C1991.30505154 129.47723131 2029.32427643 143.71331591 2069.46655273 147.75878906 C2070.3755835 147.85820801 2071.28461426 147.95762695 2072.22119141 148.06005859 C2073.02266602 148.13820801 2073.82414062 148.21635742 2074.64990234 148.296875 C2077.16706948 148.94412972 2078.17025038 149.78168279 2079.73681641 151.83349609 C2079.79931641 154.20849609 2079.79931641 154.20849609 2078.73681641 156.83349609 C2072.73270554 162.98404869 2065.89254469 165.18635188 2057.43310547 165.30200195 C2056.54333008 165.29177002 2055.65355469 165.28153809 2054.73681641 165.27099609 C2053.78258789 165.26269775 2052.82835938 165.25439941 2051.84521484 165.24584961 C2016.02228024 164.42638977 1980.69984927 151.12192182 1948.73681641 135.83349609 C1947.74456055 135.35928223 1946.75230469 134.88506836 1945.72998047 134.39648438 C1930.59077396 127.10646019 1916.00976099 119.11322888 1901.58007812 110.51367188 C1897.08119495 107.85513555 1892.53346652 105.28417 1887.98681641 102.70849609 C1881.24649223 98.87664201 1874.56313821 94.96356662 1867.92431641 90.95849609 C1810.07659154 56.10723858 1752.80149497 27.48483853 1684.73681641 20.83349609 C1683.30196899 20.68775146 1683.30196899 20.68775146 1681.83813477 20.5390625 C1668.98637269 19.42325992 1656.06379353 19.58954874 1643.17431641 19.58349609 C1641.88303833 19.58282135 1640.59176025 19.58214661 1639.26135254 19.58145142 C1617.93104453 19.59910513 1596.92135079 20.37207169 1575.73681641 22.83349609 C1574.58617706 22.9643158 1574.58617706 22.9643158 1573.41229248 23.09777832 C1550.67331989 25.68758025 1528.13378677 29.10898898 1505.73681641 33.83349609 C1504.70588867 34.05054199 1503.67496094 34.26758789 1502.61279297 34.49121094 C1474.76346036 40.52786234 1447.17568072 50.02555181 1421.73681641 62.83349609 C1420.89425293 63.24809082 1420.05168945 63.66268555 1419.18359375 64.08984375 C1397.29090977 74.88852248 1376.44401837 88.97760192 1358.73681641 105.83349609 C1361.21295568 107.48425561 1362.97381393 108.38457744 1365.70947266 109.35693359 C1403.10909246 122.9581586 1438.15106281 141.71678161 1467.52587891 168.81005859 C1469.47013578 170.58943149 1471.46074342 172.27437636 1473.48681641 173.95849609 C1524.99424221 219.14408493 1544.1816096 286.78515166 1555.11181641 351.89599609 C1555.23333069 352.61446716 1555.35484497 353.33293823 1555.4800415 354.07318115 C1558.45299762 371.82451552 1560.09392516 389.32897654 1560.05249023 407.33935547 C1560.04932606 410.19976869 1560.07292974 413.05914654 1560.09814453 415.91943359 C1560.1553303 432.34732184 1558.83007293 448.86167813 1553.98681641 464.64599609 C1553.73005127 465.50725098 1553.47328613 466.36850586 1553.20874023 467.25585938 C1547.07796471 487.16566812 1537.58240444 504.18279599 1522.73681641 518.83349609 C1521.85123047 519.72939453 1520.96564453 520.62529297 1520.05322266 521.54833984 C1494.62892349 546.06597752 1458.63140751 553.5948943 1424.47900391 553.08349609 C1403.14868738 552.4824728 1382.87908952 547.12964195 1363.73681641 537.83349609 C1363.11210449 537.53604492 1362.48739258 537.23859375 1361.84375 536.93212891 C1331.51998089 522.33442585 1308.21218848 496.58240833 1291.77783203 467.66455078 C1290.78250259 465.91385407 1289.76791119 464.17415054 1288.75244141 462.43505859 C1266.79337222 423.34791545 1258.60239093 377.75047084 1252.73681641 333.83349609 C1252.64380249 333.14811768 1252.55078857 332.46273926 1252.45495605 331.7565918 C1243.10541121 262.44381192 1253.39604766 196.45851249 1296.08911133 139.74609375 C1301.6525221 132.50396613 1307.66468064 125.64995818 1313.73681641 118.83349609 C1253.16276755 78.45079686 1120.57709285 100.54089323 915.4208374 127.29498291 C862.58707011 137.89537697 810.51545152 151.80231687 758.36465073 165.29069519 C595.71188839 207.35829482 595.71188839 207.35829482 512.17431641 214.58349609 C511.49012634 214.64284332 510.80593628 214.70219055 510.10101318 214.76333618 C490.60214572 216.42274495 471.11480265 217.04224475 451.54931641 217.02099609 C450.50778412 217.02039185 449.46625183 217.0197876 448.39315796 217.01916504 C429.77550199 216.99008686 411.28597164 216.43555238 392.73681641 214.83349609 C392.02319946 214.7726886 391.30958252 214.7118811 390.57434082 214.64923096 C310.33641744 207.73461644 232.8288337 186.18938374 22.43164062 62.82495117 C18.97644368 59.87008538 15.4696581 56.99301291 11.92431641 54.14599609 C7.99564219 50.95181314 4.36592368 47.62295341 0.88134766 43.95068359 C-0.96447036 42.1284006 -2.84799894 40.44109958 -4.81005859 38.74755859 C-10.14345208 34.10837634 -15.25377518 29.25571881 -20.32568359 24.33349609 C-20.81415771 23.87668457 -21.30263184 23.41987305 -21.8059082 22.94921875 C-23.23877037 21.60744143 -24.64403976 20.23638804 -26.04833984 18.86474609 C-26.88244385 18.06617188 -27.71654785 17.26759766 -28.57592773 16.44482422 C-30.26318359 13.83349609 -30.26318359 13.83349609 -30.12011719 10.12353516 C-29.26318359 6.83349609 -29.26318359 6.83349609 -27.76708984 5.16162109 C-19.98848998 0.84191574 -8.70001769 -4.48421624 0 0 Z M1335.43212891 127.93896484 C1334.55945735 128.95283653 1333.70396225 129.98163003 1332.86181641 131.02099609 C1332.39203369 131.59052002 1331.92225098 132.16004395 1331.43823242 132.74682617 C1304.71447375 165.97671039 1288.63705256 204.52747324 1283.73681641 246.83349609 C1283.53958984 248.50025391 1283.53958984 248.50025391 1283.33837891 250.20068359 C1276.41168824 325.27103377 1293.07318309 423.31973489 1341.73681641 482.83349609 C1345.27980887 486.95188 1348.99027045 490.90071832 1352.73681641 494.83349609 C1353.45353516 495.61466797 1354.17025391 496.39583984 1354.90869141 497.20068359 C1375.18926189 518.62489527 1407.05675254 535.03676601 1436.71728516 536.16943359 C1458.83278838 536.490178 1476.69656642 532.93735403 1493.73681641 517.83349609 C1494.35041016 517.31400391 1494.96400391 516.79451172 1495.59619141 516.25927734 C1514.3208291 499.2095499 1521.90067295 470.90178285 1525.73681641 446.83349609 C1525.8413916 446.18638672 1525.9459668 445.53927734 1526.05371094 444.87255859 C1529.22452127 421.50272213 1527.29746438 395.99357532 1523.73681641 372.83349609 C1523.63735718 372.17861206 1523.53789795 371.52372803 1523.4354248 370.84899902 C1515.60652738 319.46789998 1504.07508833 267.01770297 1473.73681641 223.83349609 C1473.26663086 223.16125 1472.79644531 222.48900391 1472.31201172 221.79638672 C1464.92691506 211.34624994 1456.66057958 201.98654674 1447.73681641 192.83349609 C1446.75498678 191.81141715 1445.77321266 190.78928488 1444.79150391 189.76708984 C1438.79479223 183.62515865 1432.51353502 178.09654456 1425.73681641 172.83349609 C1425.17430176 172.38925293 1424.61178711 171.94500977 1424.03222656 171.48730469 C1402.28148848 154.35588034 1378.03838083 140.8085294 1352.54931641 130.08349609 C1351.01633911 129.43731323 1351.01633911 129.43731323 1349.45239258 128.77807617 C1342.23135719 125.27698023 1342.23135719 125.27698023 1335.43212891 127.93896484 Z " fill="#AFBDA5" transform="translate(1225.26318359375,1972.16650390625)"/>
</svg>
